<?xml version="1.0" encoding="UTF-8" standalone="no"?>
<svg width="264" height="64" viewBox="0 0 264 64" fill="none" xmlns="http://www.w3.org/2000/svg">
  <!-- Transparent background -->
  
  <!-- Hexagon spiral pattern -->
  <!-- Inner spiral -->
  <path d="M32 32 L36 28 L32 24 L28 28 L32 32" fill="#0088CC" opacity="0.9"/>
  
  <!-- First ring -->
  <path d="M39 31 L43 27 L39 23 L35 27 L39 31" fill="#0088CC" opacity="0.85"/>
  <path d="M36 38 L40 34 L36 30 L32 34 L36 38" fill="#0088CC" opacity="0.85"/>
  <path d="M29 39 L33 35 L29 31 L25 35 L29 39" fill="#0088CC" opacity="0.85"/>
  <path d="M25 31 L29 27 L25 23 L21 27 L25 31" fill="#0088CC" opacity="0.85"/>
  <path d="M29 24 L33 20 L29 16 L25 20 L29 24" fill="#0088CC" opacity="0.85"/>
  <path d="M36 25 L40 21 L36 17 L32 21 L36 25" fill="#0088CC" opacity="0.85"/>
  
  <!-- Second ring -->
  <path d="M45 30 L49 26 L45 22 L41 26 L45 30" fill="#0088CC" opacity="0.7"/>
  <path d="M42 38 L46 34 L42 30 L38 34 L42 38" fill="#0088CC" opacity="0.7"/>
  <path d="M35 45 L39 41 L35 37 L31 41 L35 45" fill="#0088CC" opacity="0.7"/>
  <path d="M26 45 L30 41 L26 37 L22 41 L26 45" fill="#0088CC" opacity="0.7"/>
  <path d="M19 38 L23 34 L19 30 L15 34 L19 38" fill="#0088CC" opacity="0.7"/>
  <path d="M19 30 L23 26 L19 22 L15 26 L19 30" fill="#0088CC" opacity="0.7"/>
  <path d="M22 21 L26 17 L22 13 L18 17 L22 21" fill="#0088CC" opacity="0.7"/>
  <path d="M32 18 L36 14 L32 10 L28 14 L32 18" fill="#0088CC" opacity="0.7"/>
  <path d="M42 21 L46 17 L42 13 L38 17 L42 21" fill="#0088CC" opacity="0.7"/>
  
  <!-- Outer ring (smaller dots) -->
  <circle cx="49" cy="35" r="1.5" fill="#0088CC" opacity="0.5"/>
  <circle cx="46" cy="42" r="1.5" fill="#0088CC" opacity="0.5"/>
  <circle cx="42" cy="48" r="1.5" fill="#0088CC" opacity="0.5"/>
  <circle cx="35" cy="52" r="1.5" fill="#0088CC" opacity="0.5"/>
  <circle cx="28" cy="52" r="1.5" fill="#0088CC" opacity="0.5"/>
  <circle cx="21" cy="48" r="1.5" fill="#0088CC" opacity="0.5"/>
  <circle cx="15" cy="42" r="1.5" fill="#0088CC" opacity="0.5"/>
  <circle cx="12" cy="35" r="1.5" fill="#0088CC" opacity="0.5"/>
  <circle cx="12" cy="28" r="1.5" fill="#0088CC" opacity="0.5"/>
  <circle cx="15" cy="21" r="1.5" fill="#0088CC" opacity="0.5"/>
  <circle cx="21" cy="15" r="1.5" fill="#0088CC" opacity="0.5"/>
  <circle cx="28" cy="12" r="1.5" fill="#0088CC" opacity="0.5"/>
  <circle cx="35" cy="12" r="1.5" fill="#0088CC" opacity="0.5"/>
  <circle cx="42" cy="15" r="1.5" fill="#0088CC" opacity="0.5"/>
  <circle cx="48" cy="21" r="1.5" fill="#0088CC" opacity="0.5"/>
  
  <!-- Outermost dots -->
  <circle cx="52" cy="40" r="1" fill="#0088CC" opacity="0.4"/>
  <circle cx="49" cy="47" r="1" fill="#0088CC" opacity="0.4"/>
  <circle cx="43" cy="53" r="1" fill="#0088CC" opacity="0.4"/>
  <circle cx="36" cy="56" r="1" fill="#0088CC" opacity="0.4"/>
  <circle cx="28" cy="56" r="1" fill="#0088CC" opacity="0.4"/>
  <circle cx="20" cy="53" r="1" fill="#0088CC" opacity="0.4"/>
  <circle cx="14" cy="47" r="1" fill="#0088CC" opacity="0.4"/>
  <circle cx="10" cy="40" r="1" fill="#0088CC" opacity="0.4"/>
  <circle cx="8" cy="32" r="1" fill="#0088CC" opacity="0.4"/>
  <circle cx="10" cy="24" r="1" fill="#0088CC" opacity="0.4"/>
  <circle cx="14" cy="17" r="1" fill="#0088CC" opacity="0.4"/>
  <circle cx="20" cy="11" r="1" fill="#0088CC" opacity="0.4"/>
  <circle cx="28" cy="8" r="1" fill="#0088CC" opacity="0.4"/>
  <circle cx="36" cy="8" r="1" fill="#0088CC" opacity="0.4"/>
  <circle cx="43" cy="11" r="1" fill="#0088CC" opacity="0.4"/>
  <circle cx="49" cy="17" r="1" fill="#0088CC" opacity="0.4"/>
  <circle cx="52" cy="24" r="1" fill="#0088CC" opacity="0.4"/>
  <circle cx="54" cy="32" r="1" fill="#0088CC" opacity="0.4"/>
</svg>
