<?xml version="1.0" encoding="UTF-8" standalone="no"?>
<svg width="800" height="200" viewBox="0 0 800 200" xmlns="http://www.w3.org/2000/svg">
  <!-- Blue background rectangle -->
  <rect width="800" height="200" fill="#4593ff" rx="10" ry="10"/>
  
  <!-- Small hexagon spiral logo on the left -->
  <g transform="translate(100,100) scale(0.8)">
    <!-- Center hexagon -->
    <path d="M0,0 L10,-17.32 L30,-17.32 L40,0 L30,17.32 L10,17.32 Z" fill="white" opacity="0.9"/>
    
    <!-- Outer spiral hexagons - first ring -->
    <path d="M0,-34.64 L10,-51.96 L30,-51.96 L40,-34.64 L30,-17.32 L10,-17.32 Z" fill="white" opacity="0.8"/>
    <path d="M40,0 L50,-17.32 L70,-17.32 L80,0 L70,17.32 L50,17.32 Z" fill="white" opacity="0.8"/>
    <path d="M40,0 L50,17.32 L70,17.32 L80,0 L70,-17.32 L50,-17.32 Z" fill="white" opacity="0.8"/>
    <path d="M0,34.64 L10,17.32 L30,17.32 L40,34.64 L30,51.96 L10,51.96 Z" fill="white" opacity="0.8"/>
    <path d="M-40,0 L-30,-17.32 L-10,-17.32 L0,0 L-10,17.32 L-30,17.32 Z" fill="white" opacity="0.8"/>
    <path d="M-40,0 L-30,17.32 L-10,17.32 L0,0 L-10,-17.32 L-30,-17.32 Z" fill="white" opacity="0.8"/>
    
    <!-- Outer spiral hexagons - second ring (partial) -->
    <path d="M40,-69.28 L50,-86.6 L70,-86.6 L80,-69.28 L70,-51.96 L50,-51.96 Z" fill="white" opacity="0.7"/>
    <path d="M80,0 L90,-17.32 L110,-17.32 L120,0 L110,17.32 L90,17.32 Z" fill="white" opacity="0.7"/>
    <path d="M40,69.28 L50,51.96 L70,51.96 L80,69.28 L70,86.6 L50,86.6 Z" fill="white" opacity="0.7"/>
    <path d="M-80,0 L-70,-17.32 L-50,-17.32 L-40,0 L-50,17.32 L-70,17.32 Z" fill="white" opacity="0.7"/>
  </g>
  
  <!-- App name text -->
  <text x="260" y="100" font-family="Arial, sans-serif" font-size="42" font-weight="bold" fill="white">Chainless Mini-programs</text>
  
  <!-- Tagline -->
  <text x="260" y="150" font-family="Arial, sans-serif" font-size="18" fill="white">Empowering developers to innovate decentralized applications</text>
</svg>
